<svg width="1364" height="1368" viewBox="0 0 1364 1368" fill="none" xmlns="http://www.w3.org/2000/svg">
<path fill-rule="evenodd" clip-rule="evenodd" d="M653.089 0.355367C639.84 1.05137 606.079 3.84037 600.089 4.73337C596.789 5.22537 591.614 5.87836 588.589 6.18336C585.564 6.48836 579.317 7.40537 574.706 8.22037C570.095 9.03537 565.933 9.46036 565.456 9.16636C564.979 8.87136 564.027 8.97836 563.339 9.40336C561.416 10.5924 530.255 16.7974 528.839 16.2734C528.152 16.0194 527.589 16.2664 527.589 16.8234C527.589 17.3804 527.027 17.7454 526.339 17.6344C525.652 17.5234 524.414 17.7124 523.589 18.0544C519.466 19.7614 501.351 23.7194 500.387 23.1234C499.751 22.7304 499.56 22.8934 499.939 23.5054C500.551 24.4964 493.949 26.3674 490.839 26.0844C490.152 26.0214 489.589 26.3034 489.589 26.7114C489.589 27.2744 481.764 29.8384 475.589 31.2974C475.314 31.3624 473.739 32.0004 472.089 32.7134C470.439 33.4274 467.671 34.0654 465.938 34.1304C464.205 34.1954 463.038 34.6564 463.345 35.1564C463.651 35.6554 462.931 35.8094 461.744 35.4994C460.557 35.1884 459.838 35.3434 460.147 35.8414C460.679 36.7034 460.216 36.9184 457.339 37.1484C456.652 37.2034 455.864 37.5144 455.589 37.8394C455.314 38.1634 453.028 39.1224 450.509 39.9704C446.325 41.3784 445.835 41.3704 444.836 39.8794C443.898 38.4794 443.813 38.5414 444.236 40.3194C444.647 42.0474 444.015 42.5974 440.409 43.6454C438.033 44.3354 434.159 45.8154 431.8 46.9324C429.441 48.0504 426.446 49.0284 425.146 49.1064C423.845 49.1844 422.967 49.5494 423.194 49.9174C423.625 50.6164 416.65 53.3114 415.339 52.9534C414.926 52.8404 414.589 53.2464 414.589 53.8554C414.589 54.4644 413.914 54.7034 413.089 54.3864C412.264 54.0704 411.589 54.1924 411.589 54.6584C411.589 55.6144 406.105 58.0814 403.98 58.0814C403.215 58.0814 402.589 58.4014 402.589 58.7924C402.589 59.1824 400.227 60.5074 397.339 61.7354C394.451 62.9634 384.505 67.7604 375.235 72.3944C360.867 79.5784 358.139 80.6314 356.735 79.5344C355.289 78.4044 355.245 78.4484 356.374 79.8924C357.505 81.3414 356.75 82.0274 350.037 85.6484C345.845 87.9094 341.892 89.4594 341.252 89.0934C340.612 88.7274 340.438 88.8114 340.865 89.2804C341.673 90.1694 332.023 96.6864 329.839 96.7254C329.152 96.7384 328.589 97.2464 328.589 97.8554C328.589 98.4644 327.891 98.6944 327.037 98.3664C326.183 98.0394 325.709 98.1334 325.983 98.5764C326.48 99.3814 321.878 102.561 320.201 102.571C319.712 102.575 319.037 102.977 318.701 103.465C317.406 105.343 297.724 117.554 297.016 116.918C296.605 116.55 296.563 116.763 296.923 117.393C297.501 118.405 295.654 119.794 293.94 119.635C293.595 119.603 292.998 120.087 292.613 120.71C291.932 121.81 289.727 123.444 276.456 132.679C272.954 135.115 269.939 137.478 269.756 137.929C269.572 138.379 268.785 138.748 268.006 138.748C267.226 138.748 266.589 139.11 266.589 139.552C266.589 140.692 252.411 151.305 251.333 150.973C250.842 150.822 250.727 151.163 251.078 151.73C251.429 152.298 250.9 153.073 249.902 153.452C248.905 153.831 247.269 155.178 246.266 156.445C245.264 157.712 243.966 158.748 243.381 158.748C242.797 158.748 241.333 159.761 240.129 160.998C237.75 163.443 223.909 175.925 218.945 180.102C217.252 181.527 215.542 182.367 215.144 181.97C214.747 181.573 214.572 181.754 214.756 182.372C214.939 182.989 207.343 191.237 197.875 200.699C188.407 210.16 179.206 219.555 177.427 221.575C175.648 223.595 173.798 225.124 173.317 224.973C172.835 224.822 172.669 225.069 172.949 225.521C173.229 225.974 171.054 228.927 168.116 232.084C165.177 235.241 160.877 240.282 158.56 243.286C156.242 246.29 153.975 248.748 153.522 248.748C153.069 248.748 152.081 249.986 151.327 251.498C150.573 253.01 149.423 254.136 148.772 253.998C148.121 253.861 147.689 254.086 147.811 254.498C148.303 256.157 144.248 260.831 142.8 260.275C141.622 259.824 141.55 259.996 142.46 261.092C143.342 262.155 143.294 262.748 142.259 263.607C141.514 264.225 140.684 264.51 140.414 264.239C140.143 263.969 139.922 264.31 139.922 264.998C139.921 265.685 135.766 271.873 130.689 278.748C125.612 285.623 120.815 292.148 120.029 293.248C116.861 297.683 103.78 317.872 99.089 325.565C95.051 332.189 93.704 333.677 92.089 333.307C90.119 332.854 90.118 332.869 92.03 334.298C93.752 335.584 93.499 336.195 91.375 335.878C90.982 335.82 90.896 336.384 91.182 337.131C91.469 337.879 91.083 339.111 90.325 339.869C89.567 340.627 88.89 341.599 88.821 342.028C88.753 342.456 85.803 348.081 82.266 354.528C74.603 368.494 62.653 392.16 59.557 399.498C58.339 402.386 57.023 404.748 56.633 404.748C56.242 404.748 55.922 405.408 55.922 406.215C55.922 408.054 52.442 416.037 51.281 416.86C50.807 417.196 50.529 417.646 50.664 417.86C51.181 418.678 48.391 425.744 47.716 425.326C47.324 425.085 46.937 425.783 46.854 426.878C46.561 430.764 44.432 435.769 43.354 435.103C42.722 434.712 42.57 434.908 42.986 435.581C43.719 436.767 39.28 450.211 37.41 452.463C36.824 453.17 36.618 453.748 36.953 453.748C37.489 453.748 35.236 460.506 32.285 467.748C31.725 469.123 31.327 470.55 31.401 470.918C31.526 471.541 28.361 481.352 26.939 484.748C26.594 485.573 26.211 486.923 26.087 487.748C25.964 488.573 24.72 493.298 23.322 498.248C21.923 503.198 20.476 508.71 20.105 510.498C19.734 512.286 19.128 513.749 18.76 513.75C18.391 513.752 18.044 515.052 17.988 516.641C17.933 518.229 17.536 520.366 17.106 521.388C16.676 522.411 16.182 524.148 16.008 525.248C15.834 526.348 13.857 536.023 11.615 546.748C9.374 557.473 7.347 567.823 7.113 569.748C6.879 571.673 5.967 577.973 5.088 583.748C4.208 589.523 3.26699 596.273 2.99699 598.748C2.72699 601.223 1.942 608.536 1.253 614.998L0 626.748H174.172H348.345L349.967 618.498C352.419 606.022 352.526 605.551 354.435 598.661C355.621 594.382 356.665 592.35 357.57 592.554C358.687 592.806 358.698 592.584 357.636 591.304C356.678 590.15 356.632 589.401 357.458 588.406C358.07 587.668 358.35 586.842 358.079 586.571C357.516 586.008 363.411 568.526 364.424 567.754C364.79 567.476 365.134 566.686 365.189 565.998C365.494 562.183 365.671 561.68 366.52 562.205C367.032 562.522 367.776 562.254 368.174 561.61C368.626 560.879 368.465 560.707 367.744 561.153C367.109 561.545 366.589 561.411 366.589 560.854C366.589 559.305 368.823 554.748 369.583 554.748C369.953 554.748 370.256 554.106 370.256 553.321C370.256 550.545 376.844 536.788 377.87 537.422C378.435 537.771 378.611 537.592 378.259 537.024C377.277 535.434 385.39 519.507 386.754 520.35C387.474 520.795 387.624 520.613 387.156 519.857C385.524 517.217 412.981 475.688 415.807 476.523C416.319 476.674 416.479 476.379 416.163 475.868C415.49 474.778 422.48 466.13 423.736 466.498C424.205 466.635 424.476 466.185 424.339 465.498C424.201 464.81 424.685 464.372 425.413 464.523C426.142 464.674 426.453 464.337 426.105 463.774C425.757 463.212 427.667 460.388 430.349 457.5C433.03 454.611 436.234 451.123 437.468 449.748C438.702 448.373 440.472 447.237 441.4 447.224C442.344 447.211 442.981 446.531 442.843 445.683C442.52 443.686 459.253 428.332 459.929 430.005C460.255 430.811 460.459 430.694 460.51 429.672C460.583 428.207 464.538 423.748 465.764 423.748C466.064 423.748 467.984 422.169 470.03 420.239C472.076 418.309 474.175 416.992 474.695 417.313C475.214 417.634 475.515 417.48 475.364 416.971C474.787 415.029 501.981 396.254 503.769 397.359C504.39 397.743 504.628 397.62 504.298 397.086C503.497 395.79 509.277 392.437 510.746 393.345C511.443 393.776 511.627 393.618 511.211 392.945C510.361 391.57 516.193 388.385 517.773 389.362C518.447 389.778 518.621 389.608 518.206 388.938C517.784 388.254 519.473 386.827 522.552 385.267C525.322 383.863 527.596 383.059 527.604 383.481C527.613 383.903 527.95 383.798 528.354 383.248C529.765 381.328 537.59 377.631 538.739 378.341C539.402 378.751 539.629 378.622 539.27 378.041C538.916 377.468 541.573 375.808 545.366 374.232C549.064 372.696 553.889 370.662 556.089 369.713C560.944 367.618 563.888 366.692 564.685 367.01C565.013 367.141 566.006 366.647 566.892 365.912C567.777 365.177 568.933 364.842 569.46 365.168C569.987 365.494 570.569 365.354 570.754 364.858C570.938 364.361 574.761 362.832 579.248 361.46C585.371 359.588 587.697 359.251 588.569 360.107C589.443 360.964 589.652 360.903 589.41 359.861C589.095 358.502 592.308 357.13 597.589 356.371C598.964 356.173 600.764 355.749 601.589 355.429C606.538 353.508 627.237 349.719 644.589 347.556C658.492 345.824 704.734 345.828 718.589 347.563C743.289 350.656 768.208 355.985 770.41 358.644C771.14 359.526 771.452 359.686 771.104 358.998C770.756 358.311 770.785 357.748 771.169 357.748C773.173 357.748 792.138 364.096 792.424 364.862C792.609 365.356 793.148 365.521 793.622 365.227C794.396 364.749 804.831 368.628 819.32 374.778C822.269 376.03 824.274 377.448 823.916 378.028C823.563 378.599 823.765 378.757 824.369 378.384C825.49 377.691 837.826 383.431 838.424 384.924C838.609 385.384 839.171 385.506 839.674 385.195C840.177 384.884 840.589 385.182 840.589 385.856C840.589 386.53 840.883 386.787 841.242 386.428C842.008 385.663 848.524 389.36 850.335 391.587C851.02 392.429 852.378 393.177 853.353 393.249C855.915 393.438 871.692 403.772 871.037 404.833C870.733 405.323 871.071 405.512 871.787 405.252C873.336 404.689 888.212 415.526 887.814 416.928C887.663 417.461 887.926 417.658 888.399 417.366C889.455 416.713 902.589 427.473 902.589 428.99C902.589 429.59 902.846 429.824 903.161 429.51C903.475 429.195 906.063 431.093 908.911 433.726C911.759 436.359 915.56 439.739 917.359 441.236C919.157 442.734 920.507 444.688 920.359 445.58C920.203 446.516 920.779 447.211 921.721 447.224C924.412 447.263 947.554 473.354 946.828 475.531C946.593 476.235 947.006 476.684 947.745 476.529C948.498 476.372 949.029 477.012 948.952 477.987C948.877 478.944 949.174 479.504 949.614 479.232C951.064 478.336 969.092 503.912 967.871 505.133C967.532 505.471 967.698 505.748 968.238 505.748C969.639 505.748 973.698 513.29 972.82 514.261C972.418 514.705 972.608 514.772 973.242 514.41C974.532 513.671 976.846 519.109 975.757 520.323C975.39 520.733 975.647 520.748 976.329 520.356C977.785 519.518 985.948 535.358 984.919 537.024C984.567 537.592 984.743 537.771 985.308 537.422C986.334 536.788 992.922 550.545 992.922 553.321C992.922 554.106 993.243 554.748 993.634 554.748C994.856 554.748 996.821 560.564 996.031 561.842C995.52 562.668 995.7 562.798 996.592 562.246C997.569 561.642 997.76 561.986 997.34 563.593C997.029 564.78 997.136 565.528 997.576 565.256C998.286 564.817 999.85 568.584 1000.06 571.248C1000.11 571.798 1000.49 572.802 1000.91 573.479C1001.94 575.116 1005.57 585.724 1005.4 586.578C1005.33 586.946 1005.8 588.548 1006.45 590.137C1007.11 591.725 1007.41 593.259 1007.13 593.545C1006.84 593.83 1006.99 594.555 1007.47 595.156C1008.21 596.099 1009.04 599.088 1011.08 608.248C1011.33 609.348 1012.02 612.264 1012.62 614.728C1013.21 617.191 1013.49 620.004 1013.24 620.978C1012.99 621.951 1013.18 622.748 1013.68 622.748C1014.18 622.748 1014.59 623.648 1014.59 624.748C1014.59 626.74 1015.26 626.748 1188.88 626.748H1363.18L1361.93 614.998C1361.24 608.536 1360.45 601.223 1360.18 598.748C1358.8 586.073 1354.95 563.228 1351 544.224C1349.63 537.611 1348.36 531.086 1348.18 529.724C1348 528.362 1347.6 526.573 1347.29 525.748C1346.59 523.903 1337.47 489.829 1337.12 487.748C1336.98 486.923 1336.54 485.482 1336.14 484.546C1335.74 483.61 1335.75 482.303 1336.16 481.641C1336.59 480.943 1336.48 480.699 1335.89 481.061C1334.95 481.644 1332.61 475.727 1332.02 471.248C1331.87 470.148 1331.66 469.136 1331.55 468.998C1331.43 468.86 1331.25 468.411 1331.13 467.998C1331.02 467.585 1330.35 465.898 1329.65 464.248C1327.76 459.797 1324.59 450.568 1324.59 449.532C1324.59 449.036 1325.11 448.951 1325.74 449.343C1326.47 449.789 1326.63 449.617 1326.17 448.886C1325.78 448.242 1325.1 447.931 1324.67 448.195C1324.09 448.558 1316.48 430.521 1316.05 427.748C1316 427.473 1315.16 425.448 1314.17 423.248C1309.57 412.993 1306.76 405.747 1307.4 405.733C1307.78 405.724 1307.55 405.377 1306.9 404.961C1305.55 404.106 1299.34 390.748 1300.29 390.748C1300.62 390.748 1300.22 389.96 1299.39 388.998C1296.65 385.824 1285.43 362.601 1285.96 361.211C1286.26 360.431 1285.97 360.037 1285.29 360.287C1284.23 360.673 1273.84 342.905 1274.51 341.86C1274.65 341.646 1274.36 341.196 1273.88 340.86C1273.4 340.523 1270.13 335.523 1266.62 329.748C1263.11 323.973 1258.09 315.986 1255.46 311.998C1252.83 308.01 1251 304.741 1251.39 304.733C1251.77 304.724 1251.6 304.387 1250.99 303.983C1250.39 303.579 1247.72 300.098 1245.06 296.248C1242.4 292.398 1236.25 283.896 1231.38 277.355C1222.71 265.7 1222.57 265.421 1224.31 263.355C1226.08 261.261 1226.08 261.259 1223.93 263.067C1221.81 264.863 1221.74 264.832 1218.8 260.567C1217.16 258.191 1214.87 255.391 1213.7 254.343C1212.54 253.295 1211.59 252.013 1211.59 251.494C1211.59 250.975 1210.2 249.257 1208.51 247.677C1206.61 245.902 1205.72 244.315 1206.17 243.526C1206.58 242.823 1206.54 242.586 1206.08 243C1205.05 243.935 1201.44 240.805 1202.17 239.614C1202.47 239.138 1202.3 238.748 1201.81 238.748C1201.32 238.748 1197.42 234.811 1193.16 229.998C1188.89 225.186 1180.25 215.957 1173.94 209.491C1167.08 202.446 1162.76 197.273 1163.19 196.586C1163.6 195.924 1163.46 195.71 1162.86 196.08C1161.53 196.902 1156.38 192.896 1157.15 191.643C1157.47 191.124 1157.33 190.822 1156.83 190.973C1156.34 191.124 1150.57 186.128 1144.01 179.871C1137.45 173.613 1132.9 168.77 1133.89 169.109C1135 169.487 1135.45 169.327 1135.06 168.696C1134.71 168.13 1133.67 167.898 1132.76 168.181C1131.69 168.511 1129.16 166.906 1125.73 163.722C1122.79 160.986 1120.01 158.748 1119.56 158.748C1119.1 158.748 1117.85 157.623 1116.77 156.248C1115.69 154.873 1114.36 153.748 1113.82 153.748C1113.28 153.748 1112.26 153.057 1111.56 152.213C1109.68 149.946 1076.48 125.064 1066.34 118.324C1061.53 115.124 1057.59 112.185 1057.59 111.794C1057.59 111.402 1056.99 111.081 1056.26 111.081C1054.88 111.081 1045.55 105.061 1044.48 103.479C1044.14 102.983 1043.47 102.575 1042.98 102.571C1041.12 102.559 1036.72 99.3384 1037.3 98.4104C1037.63 97.8744 1037.38 97.7584 1036.74 98.1514C1035.32 99.0304 1031.31 96.3854 1032.34 95.2484C1032.75 94.7974 1032.54 94.7414 1031.88 95.1244C1031.21 95.5074 1028.96 94.7524 1026.88 93.4464C1015.03 86.0184 981.356 68.6204 962.589 60.2304C956.814 57.6484 951.864 55.2464 951.589 54.8924C951.314 54.5384 950.639 54.2454 950.089 54.2414C947.584 54.2244 939.693 50.3894 940.264 49.4654C940.624 48.8824 940.409 48.7414 939.764 49.1404C939.141 49.5254 937.692 49.3384 936.545 48.7244C935.398 48.1104 933.701 47.4324 932.774 47.2164C928.142 46.1394 918.089 41.8444 918.089 40.9424C918.089 40.3774 917.679 39.5404 917.179 39.0814C916.65 38.5974 916.57 38.7724 916.988 39.4984C917.407 40.2274 917.162 40.7504 916.398 40.7544C914.448 40.7624 896.183 34.3754 895.497 33.4454C895.172 33.0044 894.497 32.7194 893.997 32.8144C893.498 32.9084 892.752 32.8754 892.339 32.7414C891.926 32.6084 891.139 32.3854 890.589 32.2484C890.039 32.1114 889.477 31.9084 889.339 31.7994C889.201 31.6894 888.189 31.4014 887.089 31.1594C878.408 29.2494 855.697 21.9574 856.315 21.2784C856.741 20.8104 856.501 20.7674 855.783 21.1824C854.415 21.9714 840.889 19.1014 838.997 17.6204C838.396 17.1504 837.717 16.9534 837.487 17.1834C837.258 17.4134 834.149 16.9494 830.579 16.1544C821.009 14.0214 820.24 13.8634 806.089 11.1404C798.939 9.76436 792.414 8.60836 791.589 8.57236C790.764 8.53636 787.962 8.12437 785.363 7.65837C782.763 7.19137 778.263 6.56137 775.363 6.25737C772.462 5.95437 766.939 5.26837 763.089 4.73337C739.971 1.52237 677.897 -0.948633 653.089 0.355367ZM521.755 13.6244C520.657 14.3204 520.672 14.5664 521.838 15.0134C522.647 15.3244 523.256 14.9544 523.256 14.1534C523.256 13.3804 523.218 12.7554 523.172 12.7634C523.127 12.7724 522.489 13.1594 521.755 13.6244ZM259.202 141.931C259.491 142.398 260.146 142.522 260.658 142.205C261.966 141.397 261.819 141.081 260.133 141.081C259.332 141.081 258.913 141.464 259.202 141.931ZM154.589 240.141C154.589 240.357 155.287 240.802 156.141 241.13C157.031 241.471 157.432 241.303 157.082 240.737C156.495 239.786 154.589 239.331 154.589 240.141ZM34.589 446.748C34.589 447.298 35.066 447.748 35.648 447.748C36.23 447.748 36.429 447.298 36.089 446.748C35.749 446.198 35.273 445.748 35.03 445.748C34.787 445.748 34.589 446.198 34.589 446.748ZM666.589 459.738C660.814 460.141 651.253 461.236 645.342 462.17C639.432 463.105 634.075 463.548 633.438 463.155C632.719 462.71 632.551 462.877 632.994 463.593C633.426 464.293 633.038 464.748 632.01 464.748C629.064 464.748 609.459 470.716 600.089 474.465C595.139 476.446 590.527 478.07 589.839 478.074C589.152 478.078 588.589 478.483 588.589 478.974C588.589 479.464 588.177 479.612 587.674 479.301C587.171 478.99 586.609 479.133 586.424 479.619C585.925 480.933 571.928 487.754 571.208 487.034C570.868 486.693 570.589 486.888 570.589 487.467C570.589 488.045 567.326 490.479 563.339 492.874C554.152 498.394 541.262 508.092 531.487 516.84C525.385 522.301 523.618 523.407 522.535 522.446C521.423 521.459 521.397 521.53 522.388 522.852C523.384 524.18 523.105 524.868 520.764 526.852C519.209 528.17 515.101 532.727 511.636 536.979C508.171 541.23 504.873 544.423 504.308 544.074C503.728 543.716 503.581 543.927 503.971 544.557C504.351 545.172 503.746 546.591 502.625 547.712C501.505 548.832 500.589 549.884 500.589 550.05C500.589 551.443 487.664 569.508 487.059 568.961C486.624 568.569 486.592 568.81 486.987 569.496C487.855 571.005 485.251 575.045 484.089 573.992C483.638 573.583 483.571 573.777 483.941 574.423C484.754 575.842 482.676 580.748 481.262 580.748C480.708 580.748 480.536 581.029 480.879 581.372C481.467 581.959 478.035 589.668 476.705 590.748C476.366 591.023 475.961 591.923 475.805 592.748C475.131 596.304 473.277 599.673 472.318 599.081C471.732 598.718 471.578 598.921 471.965 599.547C472.342 600.157 471.121 605.064 469.252 610.452C467.384 615.84 465.043 623.714 464.05 627.951C463.016 632.365 461.826 635.394 461.263 635.046C460.722 634.712 460.588 634.937 460.964 635.546C461.34 636.155 460.691 643.087 459.522 650.95C455.14 680.411 457.186 714.343 465.083 743.157C467.011 750.189 468.293 756.418 467.934 756.999C467.55 757.62 467.757 757.762 468.434 757.343C469.108 756.927 469.641 757.279 469.714 758.189C469.898 760.479 469.981 760.71 472.978 767.248C474.49 770.548 475.792 774.036 475.871 774.998C475.95 775.96 476.286 776.748 476.617 776.748C477.606 776.748 480.666 783.814 480.085 784.755C479.789 785.234 480.143 785.99 480.871 786.437C482.954 787.713 488.731 798.71 487.967 799.945C487.562 800.601 487.733 800.777 488.384 800.375C489.752 799.529 491.942 803.367 490.981 804.923C490.582 805.569 490.723 805.783 491.308 805.421C492.306 804.805 500.589 815.834 500.589 817.779C500.589 818.312 500.963 818.748 501.419 818.748C501.876 818.748 503.628 820.661 505.313 822.998C506.998 825.335 510.787 829.906 513.733 833.155C516.679 836.404 518.965 839.475 518.814 839.979C518.663 840.484 518.942 840.648 519.433 840.344C519.925 840.041 522.893 842.482 526.029 845.77C529.165 849.058 531.982 851.748 532.289 851.748C532.596 851.748 534.519 853.21 536.563 854.998C544.112 861.599 546.647 863.592 552.075 867.195C555.128 869.221 557.369 871.295 557.055 871.802C556.739 872.315 557.248 872.432 558.201 872.067C559.358 871.623 559.684 871.786 559.201 872.567C558.754 873.29 558.999 873.528 559.852 873.201C560.604 872.912 562.4 873.77 563.842 875.107C565.285 876.444 566.79 877.248 567.187 876.893C567.583 876.538 567.601 877.099 567.225 878.139C566.649 879.738 566.777 879.837 568.054 878.777C569.288 877.753 569.678 877.817 570.182 879.13C570.521 880.013 571.201 880.488 571.694 880.183C572.186 879.879 572.589 880.107 572.589 880.689C572.589 881.271 572.926 881.641 573.339 881.51C574.542 881.129 588.589 888.013 588.589 888.984C588.589 889.469 588.926 889.66 589.339 889.409C590.215 888.875 605.814 895.189 605.182 895.822C604.947 896.056 605.731 896.323 606.922 896.414C609.873 896.641 627.966 901.814 628.589 902.61C628.864 902.961 630.214 903.301 631.589 903.365C632.964 903.429 635.889 903.79 638.089 904.166C640.289 904.543 644.564 905.277 647.589 905.797C667.2 909.167 699.46 908.71 721.236 904.751C734.478 902.344 734.145 902.352 732.461 904.498C731.219 906.082 731.254 906.118 732.828 904.885C733.784 904.135 734.32 903.122 734.019 902.635C733.718 902.147 734.51 901.679 735.78 901.596C738.653 901.406 739.69 901.207 741.589 900.481C742.414 900.166 746.239 898.933 750.089 897.741C759.298 894.89 772.009 889.62 782.839 884.164C787.652 881.739 791.603 880.091 791.619 880.502C791.636 880.912 792.127 880.428 792.71 879.425C793.736 877.661 793.839 877.661 795.912 879.425C797.99 881.193 798.011 881.192 796.619 879.401C795.356 877.777 795.386 877.441 796.865 876.613C797.79 876.096 798.781 875.689 799.068 875.71C799.354 875.731 800.524 874.813 801.666 873.671C802.809 872.528 804.378 871.837 805.154 872.135C805.93 872.432 806.458 872.316 806.327 871.876C806.196 871.436 810.814 867.515 816.589 863.162C822.364 858.809 832.939 849.433 840.089 842.326C847.239 835.22 853.426 829.482 853.839 829.576C854.251 829.671 854.489 829.41 854.367 828.998C854.244 828.585 854.976 827.003 855.993 825.481C857.562 823.132 858.088 822.905 859.465 823.981C860.865 825.073 860.922 825.033 859.877 823.691C858.882 822.413 859.288 821.259 862.146 817.239C864.061 814.546 866.107 812.046 866.693 811.683C867.28 811.321 867.65 810.85 867.515 810.636C867.38 810.423 869.029 807.431 871.179 803.989C873.901 799.631 875.545 797.902 876.589 798.298C877.709 798.723 877.802 798.577 876.956 797.724C876.111 796.872 876.477 795.396 878.397 791.915C879.812 789.348 881.373 786.973 881.865 786.636C882.357 786.3 882.676 785.717 882.574 785.341C882.206 783.987 889.975 767.868 890.761 768.354C891.204 768.628 891.312 768.189 891.001 767.378C890.689 766.567 891.011 764.857 891.714 763.576C892.417 762.296 893.071 760.798 893.167 760.248C893.263 759.698 894.483 755.637 895.877 751.224C897.272 746.811 898.727 741.527 899.111 739.483C899.524 737.279 900.234 736.028 900.853 736.411C901.428 736.766 901.604 736.581 901.244 735.999C900.884 735.417 901.502 729.61 902.617 723.094C905.579 705.781 906.658 686.165 905.553 669.728C905.035 662.017 904.367 654.255 904.07 652.478C903.773 650.702 903.064 646.61 902.495 643.387C901.926 640.163 901.709 636.877 902.013 636.085C902.317 635.292 902.199 634.871 901.749 635.149C901.3 635.427 900.116 632.187 899.119 627.951C898.121 623.714 896.475 617.833 895.46 614.881C894.446 611.929 893.861 609.116 894.162 608.631C894.462 608.145 894.23 607.748 893.648 607.748C893.066 607.748 892.685 607.411 892.801 606.998C892.918 606.585 892.434 605.2 891.724 603.92C891.015 602.639 890.689 600.929 891.001 600.118C891.312 599.307 891.168 598.89 890.682 599.19C889.244 600.079 886.605 592.475 887.831 590.975C888.604 590.03 888.493 589.848 887.401 590.267C886.385 590.656 885.336 589.513 884.01 586.572C882.953 584.229 882.24 582.124 882.424 581.892C882.609 581.661 882.357 581.196 881.865 580.86C881.373 580.523 879.812 578.148 878.397 575.581C876.454 572.059 876.101 570.613 876.956 569.684C877.807 568.76 877.787 568.625 876.873 569.139C875.35 569.997 869.311 561.915 870.045 560.001C870.332 559.255 870.141 558.907 869.621 559.228C869.102 559.549 867.885 558.56 866.918 557.03C865.95 555.5 863.688 552.281 861.89 549.876C860.093 547.471 858.909 545.039 859.26 544.471C859.611 543.904 859.452 543.714 858.908 544.051C858.363 544.387 855.266 541.44 852.026 537.501C848.785 533.562 845.359 529.675 844.413 528.865C843.466 528.054 842.966 526.909 843.301 526.32C843.636 525.73 843.541 525.582 843.091 525.989C842.641 526.397 841.664 526.225 840.919 525.607C839.822 524.696 839.804 524.175 840.827 522.865C841.92 521.465 841.876 521.414 840.502 522.486C839.19 523.508 838.537 523.322 836.742 521.411C835.548 520.14 834.912 518.723 835.33 518.263C835.747 517.804 835.598 517.707 834.999 518.048C834.399 518.389 832.149 516.997 829.999 514.955C827.848 512.912 824.854 510.447 823.345 509.476C821.836 508.505 820.711 507.156 820.845 506.479C820.979 505.802 820.493 505.372 819.764 505.523C819.036 505.674 816.786 504.517 814.764 502.951C812.743 501.385 808.727 498.598 805.839 496.757C802.951 494.917 800.589 493.01 800.589 492.521C800.589 492.031 800.167 491.891 799.65 492.21C799.134 492.529 798.306 492.065 797.811 491.179C797.315 490.294 796.595 489.642 796.211 489.732C795.449 489.91 775.401 479.816 774.589 478.846C774.314 478.517 773.193 478.091 772.097 477.899C771.002 477.706 768.752 476.825 767.097 475.941C764.074 474.324 763.48 474.103 761.53 473.873C760.948 473.804 760.723 473.34 761.031 472.841C761.34 472.343 760.621 472.188 759.434 472.499C757.827 472.919 757.483 472.728 758.087 471.751C758.62 470.889 758.508 470.68 757.76 471.142C757.134 471.529 753.116 470.738 748.832 469.384C744.547 468.031 739.368 466.61 737.324 466.226C735.279 465.843 733.814 465.193 734.067 464.783C734.321 464.373 733.35 464.262 731.91 464.537C729.94 464.914 729.491 464.716 730.095 463.738C730.612 462.902 730.504 462.682 729.791 463.123C729.182 463.499 722.475 462.932 714.887 461.863C698.239 459.518 680.761 458.749 666.589 459.738ZM487.922 566.204C487.922 567.005 488.305 567.424 488.772 567.135C489.239 566.846 489.363 566.191 489.046 565.679C488.238 564.371 487.922 564.518 487.922 566.204ZM893.322 599.872C894.001 600.556 894.808 600.863 895.115 600.555C895.423 600.247 894.868 599.688 893.882 599.312C892.457 598.77 892.342 598.884 893.322 599.872ZM458.589 736.126C458.589 736.333 459.377 737.121 460.339 737.876C461.925 739.119 461.96 739.084 460.717 737.498C459.41 735.832 458.589 735.303 458.589 736.126ZM0.467995 741.998C0.239995 744.354 0.456998 747.26 1.532 756.248C2.124 761.198 2.81499 767.048 3.06799 769.248C4.07799 778.023 6.65699 794.854 8.66199 805.748C9.82599 812.073 10.901 818.148 11.051 819.248C11.202 820.348 11.584 821.923 11.901 822.748C12.218 823.573 13.224 828.047 14.138 832.69C15.051 837.333 16.053 841.794 16.364 842.604C16.77 843.662 16.53 843.841 15.509 843.24C14.492 842.641 14.547 842.95 15.701 844.326C17.717 846.729 21.956 863.315 20.985 865.002C20.591 865.687 20.646 865.905 21.109 865.485C21.932 864.737 26.821 879.849 26.016 880.654C25.791 880.88 25.993 881.555 26.465 882.156C27.461 883.424 31.347 895.076 31.997 898.748C32.241 900.123 32.53 901.36 32.64 901.498C32.749 901.636 32.902 902.085 32.979 902.498C33.056 902.911 33.43 903.736 33.81 904.331C34.19 904.927 35.581 908.39 36.901 912.026C38.657 916.865 39.004 918.939 38.195 919.764C37.384 920.59 37.441 920.805 38.407 920.569C39.225 920.37 40.632 922.621 42.112 926.498C43.424 929.936 44.181 932.755 43.793 932.763C43.406 932.772 43.553 933.109 44.119 933.513C45.307 934.361 51.214 948.838 50.839 949.984C50.701 950.404 50.949 950.748 51.388 950.748C51.828 950.748 52.795 952.436 53.539 954.498C54.282 956.561 56.591 961.866 58.67 966.289C60.749 970.711 62.593 974.986 62.769 975.789C62.945 976.591 63.38 977.473 63.735 977.748C64.091 978.023 67.3 984.098 70.867 991.248C74.434 998.398 79.88 1008.81 82.971 1014.38C86.061 1019.95 88.589 1024.98 88.589 1025.55C88.589 1026.12 88.95 1026.73 89.392 1026.92C89.833 1027.1 91.937 1030.17 94.067 1033.75C96.197 1037.32 101.01 1045.06 104.764 1050.94C108.518 1056.82 111.589 1062.07 111.589 1062.61C111.589 1063.14 111.945 1063.73 112.38 1063.92C112.816 1064.1 114.41 1065.89 115.924 1067.9C117.916 1070.54 118.319 1071.7 117.383 1072.07C116.486 1072.43 116.575 1072.61 117.673 1072.67C118.544 1072.71 121.013 1075.34 123.16 1078.5C125.307 1081.66 128.757 1086.43 130.828 1089.09C132.899 1091.75 134.298 1094.41 133.936 1095C133.575 1095.58 133.745 1095.77 134.312 1095.42C134.88 1095.07 136.493 1096.52 137.896 1098.64C139.892 1101.65 140.191 1102.78 139.268 1103.82C138.301 1104.91 138.38 1104.93 139.706 1103.94C141.002 1102.97 141.574 1103.02 142.579 1104.24C143.269 1105.07 143.577 1105.75 143.262 1105.75C142.948 1105.75 144.276 1107.44 146.213 1109.5C148.151 1111.56 150.482 1114.37 151.395 1115.75C152.308 1117.12 153.857 1118.84 154.838 1119.57C155.82 1120.29 156.363 1121.3 156.047 1121.82C155.73 1122.33 155.974 1122.75 156.589 1122.75C157.204 1122.75 157.386 1123.27 156.994 1123.9C156.57 1124.59 156.717 1124.79 157.354 1124.39C157.945 1124.03 159.36 1124.97 160.498 1126.49C161.636 1128.01 163.135 1129.91 163.828 1130.73C164.522 1131.54 164.977 1132.55 164.839 1132.98C164.702 1133.4 165.053 1133.75 165.62 1133.75C166.976 1133.75 173.168 1140.86 172.814 1142.01C172.663 1142.5 172.97 1142.63 173.496 1142.31C174.022 1141.98 175.165 1142.74 176.037 1143.98C176.909 1145.23 182.155 1150.88 187.695 1156.55C195.089 1164.1 197.595 1167.29 197.119 1168.55C196.621 1169.85 196.745 1169.98 197.656 1169.07C198.566 1168.17 199.682 1168.71 202.465 1171.42C204.458 1173.35 206.109 1175.46 206.134 1176.09C206.159 1176.73 206.654 1177.16 207.234 1177.05C207.813 1176.94 210.224 1178.88 212.591 1181.36C214.957 1183.85 218.396 1187.02 220.232 1188.43C222.068 1189.83 223.322 1191.37 223.02 1191.86C222.718 1192.35 223.001 1192.75 223.648 1192.75C225.233 1192.75 232.16 1198.92 231.814 1200.02C231.663 1200.5 231.92 1200.66 232.385 1200.37C232.851 1200.09 235.226 1201.76 237.663 1204.1C240.101 1206.43 242.91 1208.66 243.905 1209.04C244.951 1209.44 245.413 1210.22 244.998 1210.9C244.55 1211.62 244.717 1211.79 245.442 1211.34C246.081 1210.94 246.856 1211.28 247.165 1212.09C247.474 1212.89 248.641 1213.79 249.759 1214.08C250.901 1214.38 251.495 1215.09 251.115 1215.71C250.744 1216.31 250.842 1216.67 251.333 1216.52C252.411 1216.19 266.589 1226.8 266.589 1227.94C266.589 1228.39 267.034 1228.75 267.578 1228.75C268.76 1228.75 280.557 1237.42 282.339 1239.6C283.027 1240.44 283.589 1240.8 283.589 1240.39C283.589 1239.69 289.587 1243.83 292.345 1246.43C293.036 1247.08 294.505 1247.9 295.609 1248.25C296.714 1248.61 297.353 1249.32 297.029 1249.85C296.705 1250.37 296.811 1250.69 297.265 1250.56C298.838 1250.11 302.642 1252.85 301.962 1253.95C301.542 1254.63 301.74 1254.77 302.478 1254.32C303.158 1253.9 305.139 1254.69 307.065 1256.16C308.93 1257.58 310.701 1258.75 311.002 1258.75C312.658 1258.75 326.507 1268.51 325.861 1269.22C325.436 1269.69 325.617 1269.77 326.263 1269.4C327.756 1268.54 341.655 1276.83 340.867 1278.11C340.544 1278.63 340.776 1278.75 341.383 1278.38C341.99 1278 346.508 1279.93 351.423 1282.66C363.071 1289.12 404.761 1309.99 406.589 1310.27C408.789 1310.61 411.589 1312.06 411.589 1312.87C411.589 1313.42 412.005 1313.61 412.514 1313.29C413.668 1312.58 418.589 1314.75 418.589 1315.97C418.589 1316.46 418.99 1316.62 419.48 1316.32C420.997 1315.38 429.71 1319.73 428.966 1321.06C428.457 1321.96 428.608 1321.96 429.595 1321.05C430.593 1320.12 431.384 1320.11 432.992 1321.01C434.145 1321.65 435.314 1322.21 435.589 1322.26C436.75 1322.44 444.171 1325.06 445.089 1325.61C445.639 1325.95 446.314 1326.24 446.589 1326.27C446.864 1326.3 450.101 1327.35 453.783 1328.6C459.103 1330.41 460.367 1331.22 459.939 1332.56C459.522 1333.87 459.62 1333.94 460.371 1332.89C461.175 1331.76 462.61 1331.93 468.715 1333.84C472.771 1335.1 476.24 1336.51 476.424 1336.95C476.609 1337.4 477.077 1337.56 477.465 1337.33C478.596 1336.63 500.676 1343.33 499.875 1344.13C499.476 1344.53 499.811 1344.61 500.619 1344.3C501.428 1344 507.039 1345.11 513.089 1346.76C519.139 1348.41 524.989 1349.92 526.089 1350.11C527.189 1350.3 530.114 1350.8 532.589 1351.22C535.064 1351.64 537.531 1352.24 538.071 1352.57C538.612 1352.89 539.737 1353.24 540.571 1353.34C543.173 1353.66 549.802 1354.89 557.089 1356.4C560.939 1357.2 564.764 1357.88 565.589 1357.92C566.414 1357.96 569.114 1358.35 571.589 1358.8C586.158 1361.4 620.673 1365.21 641.589 1366.53C656.456 1367.46 706.76 1367.46 721.589 1366.52C751.69 1364.63 785.569 1360.36 811.863 1355.15C816.139 1354.3 820.658 1353.5 821.906 1353.37C823.153 1353.23 824.605 1352.87 825.131 1352.55C825.658 1352.24 828.114 1351.64 830.589 1351.22C833.064 1350.8 835.989 1350.3 837.089 1350.11C838.189 1349.92 844.039 1348.41 850.089 1346.76C856.139 1345.11 861.75 1344 862.559 1344.3C863.367 1344.61 863.703 1344.53 863.306 1344.13C862.755 1343.58 876.192 1339.16 887.089 1336.31C887.639 1336.17 888.855 1335.72 889.791 1335.31C890.727 1334.9 892.034 1334.91 892.696 1335.31C893.38 1335.74 893.638 1335.64 893.293 1335.08C892.811 1334.3 897.16 1332.68 903.839 1331.17C904.252 1331.08 904.926 1330.89 905.339 1330.76C905.751 1330.62 906.427 1330.56 906.839 1330.63C907.251 1330.7 907.589 1330.35 907.589 1329.87C907.589 1329.39 909.277 1328.52 911.339 1327.95C913.402 1327.38 918.689 1325.5 923.089 1323.77C927.489 1322.04 931.539 1320.5 932.089 1320.34C933.166 1320.03 935.404 1319.11 942.839 1315.88C945.451 1314.75 947.596 1314.14 947.604 1314.53C947.613 1314.93 947.95 1314.79 948.354 1314.22C949.276 1312.93 957.154 1309.42 959.122 1309.42C959.929 1309.42 960.589 1309.12 960.589 1308.77C960.589 1307.96 973.788 1302.15 974.832 1302.5C975.248 1302.64 975.589 1302.39 975.589 1301.94C975.589 1301.5 982.226 1297.84 990.339 1293.82C998.451 1289.79 1008.46 1284.56 1012.59 1282.19C1016.71 1279.82 1020.67 1278.07 1021.39 1278.3C1022.11 1278.54 1022.48 1278.37 1022.21 1277.94C1021.51 1276.81 1035.53 1268.6 1036.82 1269.39C1037.41 1269.76 1037.63 1269.62 1037.3 1269.09C1036.97 1268.55 1038.14 1267.28 1039.89 1266.25C1045.11 1263.2 1068.55 1247.75 1076.08 1242.39C1079.92 1239.65 1083.61 1237.42 1084.28 1237.42C1084.95 1237.42 1085.27 1237.04 1084.98 1236.57C1084.7 1236.11 1085.28 1235.43 1086.28 1235.05C1087.27 1234.68 1088.58 1233.71 1089.19 1232.91C1089.87 1232 1090.82 1231.75 1091.69 1232.26C1092.46 1232.7 1092.78 1232.72 1092.4 1232.3C1091.57 1231.38 1093.77 1228.77 1094.84 1229.41C1095.25 1229.66 1095.59 1229.43 1095.59 1228.91C1095.59 1227.82 1109.13 1217.25 1110.52 1217.25C1111.02 1217.25 1111.8 1216.84 1112.26 1216.34C1112.75 1215.8 1112.48 1215.77 1111.59 1216.28C1110.3 1217.01 1110.28 1216.9 1111.46 1215.44C1113.08 1213.45 1115.2 1213.24 1115.98 1215C1116.35 1215.84 1116.5 1215.76 1116.44 1214.75C1116.39 1213.92 1116.4 1212.77 1116.47 1212.18C1116.62 1210.81 1129.81 1200.18 1130.91 1200.53C1131.37 1200.68 1131.47 1200.36 1131.14 1199.83C1130.81 1199.3 1131.17 1198.51 1131.93 1198.06C1134.08 1196.8 1147.43 1184.72 1151.87 1180.02C1154.07 1177.7 1156.26 1176.05 1156.75 1176.35C1157.24 1176.65 1157.52 1176.3 1157.36 1175.57C1157.21 1174.84 1157.65 1174.36 1158.34 1174.5C1159.03 1174.64 1159.48 1174.41 1159.34 1173.99C1159.2 1173.57 1165 1167.16 1172.23 1159.74C1179.46 1152.32 1189.75 1141.3 1195.11 1135.25C1200.46 1129.2 1205.46 1123.75 1206.2 1123.15C1206.95 1122.55 1207.3 1121.79 1206.99 1121.48C1206.67 1121.17 1207.58 1120.15 1209 1119.21C1210.42 1118.28 1211.59 1116.96 1211.59 1116.29C1211.59 1115.61 1212.54 1114.2 1213.7 1113.15C1214.87 1112.11 1217.16 1109.31 1218.8 1106.93C1221.74 1102.66 1221.81 1102.63 1223.93 1104.43C1226.08 1106.24 1226.08 1106.24 1224.27 1104.09C1222.48 1101.97 1222.52 1101.84 1227.18 1095.84C1229.78 1092.49 1232.31 1089.75 1232.81 1089.75C1233.3 1089.75 1233.46 1089.35 1233.16 1088.86C1232.42 1087.67 1235.05 1085.57 1236.09 1086.51C1236.54 1086.91 1236.58 1086.67 1236.17 1085.97C1235.72 1085.19 1237.37 1082.08 1240.4 1077.97C1246.21 1070.09 1259.9 1049.07 1267.57 1036.25C1270.53 1031.3 1273.36 1026.97 1273.86 1026.64C1274.35 1026.3 1274.75 1025.63 1274.74 1025.14C1274.72 1023.96 1282.65 1009.59 1284.17 1008.05C1284.82 1007.38 1285.65 1007.15 1286.02 1007.52C1286.39 1007.89 1286.42 1007.46 1286.08 1006.57C1285.44 1004.91 1291.94 990.839 1293.97 989.513C1294.58 989.109 1294.74 988.772 1294.32 988.763C1293.57 988.748 1298.25 978.732 1299.47 977.748C1299.81 977.473 1300.23 976.613 1300.39 975.837C1300.56 975.062 1302.29 971.023 1304.24 966.863C1309.11 956.462 1320.05 929.522 1324.77 916.334C1326.92 910.331 1328.98 904.931 1329.35 904.334C1329.73 903.737 1330.12 902.65 1330.23 901.92C1330.34 901.189 1330.76 899.839 1331.15 898.92C1331.55 898 1331.95 896.573 1332.05 895.748C1332.35 893.331 1335.78 883.347 1336.71 882.156C1337.19 881.555 1337.34 880.83 1337.05 880.545C1336.77 880.259 1337.06 878.725 1337.71 877.137C1338.36 875.548 1339 873.798 1339.12 873.248C1340.55 867.037 1342.96 858.047 1343.4 857.29C1343.71 856.764 1344.07 855.414 1344.21 854.29C1344.34 853.167 1345.54 847.748 1346.88 842.248C1348.21 836.748 1350.54 825.723 1352.06 817.748C1353.58 809.773 1355.05 802.573 1355.32 801.748C1355.6 800.923 1355.97 798.898 1356.15 797.248C1356.33 795.598 1357.2 789.523 1358.08 783.748C1358.97 777.973 1359.91 771.223 1360.18 768.748C1360.45 766.273 1361.24 758.96 1361.93 752.498L1363.18 740.748H1188.99H1014.79L1013.63 747.498C1012.43 754.505 1008.97 769.132 1007.9 771.748C1007.18 773.504 1006.95 774.565 1006.74 777.12C1006.61 778.757 1006.37 778.82 1004.84 777.62C1003.25 776.371 1003.22 776.408 1004.49 778.03C1005.99 779.943 1005.19 784.124 1001.85 791.748C1001.01 793.673 1000.23 796.09 1000.11 797.12C999.999 798.149 999.159 799.409 998.247 799.919C997.335 800.43 996.596 801.388 996.604 802.048C996.614 802.802 997.021 802.69 997.699 801.748C998.596 800.5 998.678 800.556 998.183 802.08C997.856 803.087 997.589 804.351 997.589 804.889C997.589 805.426 997.069 805.545 996.434 805.153C995.699 804.698 995.552 804.88 996.031 805.654C996.821 806.932 994.856 812.748 993.634 812.748C993.243 812.748 992.922 813.414 992.922 814.229C992.922 817.041 985.358 832.723 984.313 832.077C983.73 831.717 983.58 831.924 983.968 832.552C985.01 834.238 977.788 847.978 976.307 847.127C975.637 846.742 975.39 846.763 975.757 847.173C976.615 848.129 974.636 853.895 973.658 853.291C973.253 853.041 972.922 853.396 972.922 854.08C972.922 856.018 967.526 864.748 966.327 864.748C965.738 864.748 965.534 865.026 965.873 865.366C967.007 866.499 945.549 896.748 943.611 896.748C943.123 896.748 942.464 897.536 942.147 898.498C941.241 901.251 932.03 910.847 931.102 910.005C930.644 909.589 930.583 909.796 930.968 910.466C931.864 912.026 909.884 934.048 908.366 933.11C907.769 932.741 907.559 932.891 907.901 933.444C908.243 933.996 906.625 936.062 904.306 938.034C891.693 948.759 889.191 950.625 888.189 950.054C887.584 949.709 887.402 949.775 887.786 950.201C888.717 951.235 881.729 956.652 866.636 966.599C859.786 971.113 853.575 974.573 852.834 974.288C852.092 974.004 851.716 974.145 851.999 974.603C852.58 975.543 838.164 984.081 835.995 984.081C835.222 984.081 834.589 984.384 834.589 984.754C834.589 985.894 829.504 987.814 828.36 987.106C827.756 986.733 827.566 986.902 827.929 987.489C828.708 988.749 825.853 990.029 824.344 989.097C823.759 988.735 823.563 988.896 823.908 989.455C824.456 990.342 813.528 995.587 805.589 998.248C805.314 998.34 803.739 998.989 802.089 999.691C795.595 1002.45 778.425 1007.77 777.617 1007.27C777.145 1006.97 776.605 1007.2 776.415 1007.77C776.225 1008.34 774.724 1008.91 773.079 1009.03C771.435 1009.15 769.841 1009.58 769.538 1009.99C769.235 1010.39 767.64 1010.87 765.993 1011.05C764.346 1011.23 762.527 1011.67 761.95 1012.03C760.142 1013.14 736.666 1017.6 723.089 1019.41C706.693 1021.59 660.356 1021.9 644.589 1019.94C629.612 1018.07 612.679 1015.04 601.089 1012.15C586.97 1008.63 564.63 1001.49 565.139 1000.67C565.375 1000.29 565.01 999.994 564.328 1000.02C560.907 1000.14 559.522 999.665 560.184 998.593C560.637 997.861 560.458 997.711 559.693 998.184C559.031 998.593 557.049 998.279 555.289 997.485C553.529 996.691 549.064 994.788 545.366 993.256C541.572 991.684 538.916 990.028 539.27 989.455C539.629 988.874 539.402 988.745 538.739 989.155C537.643 989.833 529.788 986.203 528.477 984.413C528.141 983.953 527.691 983.682 527.477 983.809C526.544 984.367 522.589 982.51 522.589 981.514C522.589 980.909 522.305 980.699 521.958 981.046C521.021 981.982 517.437 979.804 518.113 978.709C518.432 978.193 517.995 978.039 517.141 978.366C516.287 978.694 515.589 978.464 515.589 977.855C515.589 977.246 515.252 976.819 514.839 976.907C513.379 977.216 510.608 975.526 511.147 974.655C511.447 974.169 511.066 974.011 510.301 974.305C509.535 974.599 502.199 970.329 493.999 964.817C480.648 955.842 471.697 949.312 475.494 951.316C476.428 951.809 476.656 951.665 476.174 950.886C475.776 950.242 475.1 949.932 474.672 950.197C473.432 950.963 460.597 939.887 460.51 937.976C460.457 936.818 460.257 936.684 459.902 937.571C459.508 938.558 458.774 938.331 457.012 936.676C455.713 935.456 454.895 934.062 455.194 933.578C455.493 933.094 455.336 932.822 454.846 932.973C453.53 933.379 446.618 927.065 447.411 926.182C447.784 925.767 447.592 925.71 446.986 926.056C446.377 926.403 441.787 922.283 436.742 916.859C425.389 904.656 423.466 902.224 424.372 901.222C424.766 900.785 424.549 900.737 423.889 901.116C423.186 901.519 422.189 900.86 421.48 899.526C420.816 898.273 419.443 896.66 418.43 895.941C417.418 895.223 416.589 894.033 416.589 893.298C416.589 892.563 415.914 891.703 415.089 891.386C414.264 891.07 413.589 890.17 413.589 889.386C413.589 888.603 413.004 887.737 412.289 887.463C410.639 886.83 400.256 871.879 400.256 870.137C400.256 869.422 399.955 869.022 399.587 869.249C398.427 869.966 386.328 848.979 387.142 847.662C387.617 846.894 387.482 846.696 386.779 847.131C386.095 847.553 384.668 845.864 383.108 842.785C381.704 840.015 380.9 837.741 381.322 837.733C381.744 837.724 381.639 837.387 381.089 836.983C379.283 835.656 377.507 831.689 378.21 830.553C378.597 829.926 378.448 829.717 377.87 830.074C376.844 830.708 370.256 816.951 370.256 814.175C370.256 813.39 369.953 812.748 369.583 812.748C368.823 812.748 366.589 808.191 366.589 806.642C366.589 806.085 367.109 805.951 367.744 806.343C368.465 806.789 368.626 806.617 368.174 805.886C367.776 805.242 367.032 804.974 366.52 805.291C366.008 805.607 365.589 805.426 365.589 804.889C365.589 804.351 365.288 803.126 364.919 802.166C364.415 800.851 364.6 800.62 365.669 801.231C366.45 801.677 366.067 801.049 364.817 799.835C363.567 798.622 362.818 797.186 363.153 796.645C363.487 796.103 363.27 795.069 362.67 794.345C360.886 792.197 357.67 781.924 358.093 779.728C358.308 778.61 358.058 777.958 357.537 778.28C357.015 778.602 356.52 778.052 356.437 777.057C356.226 774.56 355.994 773.49 355.285 771.748C353.784 768.063 351.572 757.584 352.111 756.712C352.439 756.182 352.263 755.748 351.72 755.748C350.802 755.748 349.066 746.443 349.248 742.498C349.324 740.838 340.389 740.748 174.959 740.748C36.194 740.748 0.563995 741.003 0.467995 741.998ZM484.202 798.931C484.491 799.398 485.146 799.522 485.658 799.205C486.966 798.397 486.819 798.081 485.133 798.081C484.332 798.081 483.913 798.464 484.202 798.931ZM540.153 862.041C540.529 863.027 541.088 863.582 541.396 863.274C541.704 862.967 541.397 862.16 540.713 861.481C539.725 860.501 539.611 860.616 540.153 862.041ZM1324.13 920.679C1323.81 921.191 1323.94 921.846 1324.41 922.135C1324.87 922.424 1325.26 922.005 1325.26 921.204C1325.26 919.518 1324.94 919.371 1324.13 920.679ZM1204.59 1126.14C1204.59 1126.36 1205.29 1126.8 1206.14 1127.13C1207.03 1127.47 1207.43 1127.3 1207.08 1126.74C1206.5 1125.79 1204.59 1125.33 1204.59 1126.14ZM259.192 1225.58C258.909 1226.04 259.312 1226.42 260.089 1226.42C260.866 1226.42 261.269 1226.04 260.986 1225.58C260.703 1225.12 260.299 1224.75 260.089 1224.75C259.879 1224.75 259.475 1225.12 259.192 1225.58Z" fill="white"/>
</svg>
